<svg width="22" height="25" viewBox="0 0 22 25" fill="none" xmlns="http://www.w3.org/2000/svg">
<path d="M20.1667 8.33333H7.33333V5.55556C7.33333 4.57327 7.71964 3.63122 8.40728 2.93664C9.09491 2.24206 10.0275 1.85185 11 1.85185C12.7611 1.85185 14.3458 3.125 14.685 4.81366C14.7354 5.05228 14.8769 5.26118 15.0789 5.39495C15.2809 5.52873 15.527 5.57657 15.7637 5.52808C16.0004 5.47958 16.2086 5.33868 16.3431 5.13598C16.4775 4.93328 16.5273 4.68518 16.4817 4.4456C15.9637 1.86921 13.6583 0 11 0C9.54177 0.00153194 8.14371 0.58734 7.11259 1.62888C6.08147 2.67041 5.50152 4.0826 5.5 5.55556V8.33333H1.83333C1.3471 8.33333 0.880787 8.52844 0.536971 8.87573C0.193154 9.22302 0 9.69404 0 10.1852V23.1481C0 23.6393 0.193154 24.1103 0.536971 24.4576C0.880787 24.8049 1.3471 25 1.83333 25H20.1667C20.6529 25 21.1192 24.8049 21.463 24.4576C21.8068 24.1103 22 23.6393 22 23.1481V10.1852C22 9.69404 21.8068 9.22302 21.463 8.87573C21.1192 8.52844 20.6529 8.33333 20.1667 8.33333ZM20.1667 23.1481H1.83333V10.1852H20.1667V23.1481Z" fill="white"/>
</svg>
