<svg width="28" height="25" viewBox="0 0 28 25" fill="none" xmlns="http://www.w3.org/2000/svg">
<path d="M26.88 5.59641L15.0338 0.221112C14.7173 0.076077 14.3616 0 14 0C13.6384 0 13.2827 0.076077 12.9662 0.221112L1.12 5.59864C0.781696 5.75214 0.499293 5.97816 0.302281 6.25308C0.105269 6.528 0.000875347 6.84174 0 7.16155V17.8385C0.000875347 18.1583 0.105269 18.472 0.302281 18.7469C0.499293 19.0218 0.781696 19.2479 1.12 19.4014L12.9662 24.7789C13.2827 24.9239 13.6384 25 14 25C14.3616 25 14.7173 24.9239 15.0338 24.7789L26.88 19.4014C27.2183 19.2479 27.5007 19.0218 27.6977 18.7469C27.8947 18.472 27.9991 18.1583 28 17.8385V7.16266C27.9998 6.84229 27.8958 6.52785 27.6987 6.25229C27.5017 5.97672 27.2189 5.75018 26.88 5.59641ZM14 1.78402L24.815 6.69602L20.8075 8.5157L9.99115 3.6037L14 1.78402ZM14 11.608L3.185 6.69602L7.74846 4.62405L18.5635 9.53605L14 11.608ZM2.15385 8.25893L12.9231 13.1464V22.7237L2.15385 17.8396V8.25893ZM25.8462 17.8351L15.0769 22.7237V13.1508L19.3846 11.1961V15.1804C19.3846 15.4173 19.4981 15.6444 19.7 15.8119C19.902 15.9794 20.1759 16.0735 20.4615 16.0735C20.7472 16.0735 21.0211 15.9794 21.223 15.8119C21.425 15.6444 21.5385 15.4173 21.5385 15.1804V10.2182L25.8462 8.25893V17.834V17.8351Z" fill="white"/>
</svg>
