<svg width="30" height="24" viewBox="0 0 30 24" fill="none" xmlns="http://www.w3.org/2000/svg">
<path d="M29.9275 8.71103L28.1775 3.7129C28.029 3.29002 27.7728 2.92781 27.4421 2.67319C27.1114 2.41858 26.7213 2.28329 26.3225 2.28486H22V1.14243C22 0.839439 21.8946 0.548858 21.7071 0.33461C21.5196 0.120363 21.2652 0 21 0H2C1.46957 0 0.960859 0.240726 0.585786 0.66922C0.210714 1.09771 0 1.67888 0 2.28486V18.2789C0 18.8849 0.210714 19.466 0.585786 19.8945C0.960859 20.323 1.46957 20.5637 2 20.5637H4.125C4.3453 21.5467 4.8457 22.418 5.54731 23.0401C6.24892 23.6623 7.11183 24 8 24C8.88817 24 9.75108 23.6623 10.4527 23.0401C11.1543 22.418 11.6547 21.5467 11.875 20.5637H18.125C18.3453 21.5467 18.8457 22.418 19.5473 23.0401C20.2489 23.6623 21.1118 24 22 24C22.8882 24 23.7511 23.6623 24.4527 23.0401C25.1543 22.418 25.6547 21.5467 25.875 20.5637H28C28.5304 20.5637 29.0391 20.323 29.4142 19.8945C29.7893 19.466 30 18.8849 30 18.2789V9.13944C30.0003 8.99262 29.9757 8.84713 29.9275 8.71103ZM22 4.56972H26.3225L27.5225 7.99701H22V4.56972ZM2 2.28486H20V11.4243H2V2.28486ZM8 21.7062C7.60444 21.7062 7.21776 21.5722 6.88886 21.3211C6.55996 21.07 6.30362 20.7132 6.15224 20.2957C6.00086 19.8782 5.96126 19.4188 6.03843 18.9756C6.1156 18.5323 6.30608 18.1252 6.58579 17.8057C6.86549 17.4861 7.22186 17.2685 7.60982 17.1804C7.99778 17.0922 8.39991 17.1374 8.76537 17.3104C9.13082 17.4833 9.44318 17.7762 9.66294 18.1519C9.8827 18.5277 10 18.9694 10 19.4213C10 20.0273 9.78928 20.6085 9.41421 21.037C9.03914 21.4655 8.53043 21.7062 8 21.7062ZM18.125 18.2789H11.875C11.6547 17.2959 11.1543 16.4247 10.4527 15.8025C9.75108 15.1803 8.88817 14.8426 8 14.8426C7.11183 14.8426 6.24892 15.1803 5.54731 15.8025C4.8457 16.4247 4.3453 17.2959 4.125 18.2789H2V13.7092H20V15.4671C19.5402 15.7707 19.1377 16.1756 18.8158 16.6583C18.4939 17.1409 18.2591 17.6918 18.125 18.2789ZM22 21.7062C21.6044 21.7062 21.2178 21.5722 20.8889 21.3211C20.56 21.07 20.3036 20.7132 20.1522 20.2957C20.0009 19.8782 19.9613 19.4188 20.0384 18.9756C20.1156 18.5323 20.3061 18.1252 20.5858 17.8057C20.8655 17.4861 21.2219 17.2685 21.6098 17.1804C21.9978 17.0922 22.3999 17.1374 22.7654 17.3104C23.1308 17.4833 23.4432 17.7762 23.6629 18.1519C23.8827 18.5277 24 18.9694 24 19.4213C24 20.0273 23.7893 20.6085 23.4142 21.037C23.0391 21.4655 22.5304 21.7062 22 21.7062ZM28 18.2789H25.875C25.6521 17.2983 25.1507 16.4299 24.4495 15.8097C23.7483 15.1895 22.8868 14.8526 22 14.8516V10.2819H28V18.2789Z" fill="white"/>
</svg>
