<svg width="24" height="24" viewBox="0 0 24 24" fill="none" xmlns="http://www.w3.org/2000/svg">
<path d="M19.6557 11.4692C19.7254 11.5388 19.7807 11.6215 19.8184 11.7126C19.8562 11.8036 19.8756 11.9012 19.8756 11.9998C19.8756 12.0984 19.8562 12.196 19.8184 12.287C19.7807 12.3781 19.7254 12.4608 19.6557 12.5304L11.9635 20.2179C10.9787 21.2025 9.64318 21.7556 8.25063 21.7556C6.85809 21.7555 5.52261 21.2022 4.538 20.2175C3.55338 19.2327 3.00028 17.8972 3.00037 16.5046C3.00045 15.1121 3.55372 13.7766 4.53847 12.792L13.8441 3.34949C14.5471 2.64571 15.5009 2.25004 16.4957 2.24951C17.4905 2.24898 18.4447 2.64365 19.1485 3.34668C19.8522 4.04971 20.2479 5.00352 20.2484 5.99828C20.249 6.99305 19.8543 7.94728 19.1513 8.65105L9.84378 18.0936C9.42109 18.5162 8.8478 18.7537 8.25003 18.7537C7.65226 18.7537 7.07897 18.5162 6.65628 18.0936C6.23359 17.6709 5.99613 17.0976 5.99613 16.4998C5.99612 15.902 6.23359 15.3287 6.65628 14.9061L14.4657 6.97293C14.5341 6.89995 14.6164 6.8414 14.7078 6.80071C14.7991 6.76002 14.8977 6.73802 14.9977 6.73601C15.0977 6.734 15.1971 6.75201 15.2901 6.78899C15.383 6.82596 15.4676 6.88116 15.5389 6.95132C15.6102 7.02149 15.6667 7.10521 15.7052 7.19755C15.7437 7.28989 15.7632 7.38899 15.7628 7.48902C15.7624 7.58904 15.742 7.68797 15.7027 7.77999C15.6635 7.872 15.6063 7.95524 15.5344 8.0248L7.72409 15.9664C7.65416 16.0357 7.59858 16.1182 7.56052 16.2091C7.52247 16.2999 7.50268 16.3974 7.50229 16.4959C7.50189 16.5944 7.52091 16.692 7.55824 16.7832C7.59557 16.8743 7.6505 16.9572 7.71987 17.0271C7.78925 17.0971 7.87172 17.1527 7.96257 17.1907C8.05342 17.2288 8.15089 17.2486 8.24939 17.249C8.34789 17.2493 8.44551 17.2303 8.53666 17.193C8.62782 17.1557 8.71072 17.1007 8.78065 17.0314L18.0872 7.59355C18.5099 7.17173 18.7477 6.59928 18.7483 6.00212C18.7489 5.40497 18.5123 4.83202 18.0905 4.40933C17.6687 3.98665 17.0962 3.74884 16.4991 3.74822C15.9019 3.74761 15.329 3.98423 14.9063 4.40605L5.60253 13.8448C5.25399 14.1928 4.97741 14.606 4.78857 15.0609C4.59973 15.5158 4.50234 16.0034 4.50194 16.4959C4.50155 16.9884 4.59817 17.4762 4.78629 17.9313C4.9744 18.3865 5.25033 18.8002 5.59831 19.1487C5.94629 19.4972 6.35952 19.7738 6.81439 19.9627C7.26926 20.1515 7.75688 20.2489 8.24939 20.2493C8.7419 20.2497 9.22967 20.1531 9.68484 19.965C10.14 19.7768 10.5537 19.5009 10.9022 19.1529L18.5953 11.4654C18.7365 11.3254 18.9274 11.2471 19.1263 11.2478C19.3251 11.2485 19.5155 11.3281 19.6557 11.4692Z" fill="black"/>
</svg>
