<svg width="24" height="24" viewBox="0 0 24 24" fill="none" xmlns="http://www.w3.org/2000/svg">
<path d="M13.3846 11.9962C13.3846 12.2701 13.3034 12.5378 13.1513 12.7656C12.9991 12.9933 12.7829 13.1708 12.5299 13.2756C12.2769 13.3804 11.9985 13.4078 11.7299 13.3544C11.4613 13.3009 11.2146 13.1691 11.0209 12.9754C10.8273 12.7817 10.6954 12.535 10.642 12.2664C10.5886 11.9978 10.616 11.7193 10.7208 11.4663C10.8256 11.2133 11.0031 10.997 11.2307 10.8449C11.4584 10.6927 11.7261 10.6115 12 10.6115C12.3672 10.6115 12.7194 10.7574 12.9791 11.0171C13.2387 11.2768 13.3846 11.629 13.3846 11.9962ZM6.92308 10.6115C6.64923 10.6115 6.38152 10.6927 6.15383 10.8449C5.92613 10.997 5.74866 11.2133 5.64386 11.4663C5.53906 11.7193 5.51164 11.9978 5.56507 12.2664C5.61849 12.535 5.75036 12.7817 5.94401 12.9754C6.13765 13.1691 6.38436 13.3009 6.65295 13.3544C6.92154 13.4078 7.19994 13.3804 7.45295 13.2756C7.70595 13.1708 7.9222 12.9933 8.07434 12.7656C8.22649 12.5378 8.30769 12.2701 8.30769 11.9962C8.30769 11.629 8.16181 11.2768 7.90215 11.0171C7.64248 10.7574 7.2903 10.6115 6.92308 10.6115ZM17.0769 10.6115C16.8031 10.6115 16.5354 10.6927 16.3077 10.8449C16.08 10.997 15.9025 11.2133 15.7977 11.4663C15.6929 11.7193 15.6655 11.9978 15.7189 12.2664C15.7723 12.535 15.9042 12.7817 16.0979 12.9754C16.2915 13.1691 16.5382 13.3009 16.8068 13.3544C17.0754 13.4078 17.3538 13.3804 17.6068 13.2756C17.8598 13.1708 18.076 12.9933 18.2282 12.7656C18.3803 12.5378 18.4615 12.2701 18.4615 11.9962C18.4615 11.629 18.3157 11.2768 18.056 11.0171C17.7963 10.7574 17.4441 10.6115 17.0769 10.6115ZM24 11.9962C24.0005 14.0682 23.4645 16.105 22.4444 17.9083C21.4242 19.7117 19.9546 21.2202 18.1785 22.287C16.4024 23.3538 14.3805 23.9426 12.3094 23.996C10.2383 24.0494 8.18868 23.5657 6.36 22.5919L2.43115 23.9016C2.10587 24.0101 1.7568 24.0258 1.42307 23.9471C1.08934 23.8683 0.784139 23.6981 0.541674 23.4557C0.29921 23.2132 0.129063 22.9079 0.0503048 22.5742C-0.0284533 22.2404 -0.0127104 21.8913 0.0957689 21.566L1.40538 17.6368C0.549402 16.0273 0.0713043 14.2439 0.00738154 12.422C-0.0565412 10.6001 0.295391 8.78762 1.03646 7.12207C1.77754 5.45652 2.88828 3.9817 4.28437 2.80957C5.68046 1.63743 7.32521 0.798782 9.09377 0.357276C10.8623 -0.0842302 12.7082 -0.116988 14.4913 0.26149C16.2745 0.639967 17.9479 1.41973 19.3847 2.54159C20.8215 3.66346 21.9839 5.09794 22.7836 6.73614C23.5832 8.37435 23.9993 10.1732 24 11.9962ZM22.1538 11.9962C22.1534 10.4385 21.7946 8.90181 21.1053 7.50496C20.416 6.10812 19.4146 4.88859 18.1786 3.94072C16.9426 2.99286 15.5052 2.34208 13.9774 2.03872C12.4497 1.73536 10.8727 1.78756 9.36835 2.19129C7.86402 2.59501 6.47272 3.33943 5.3021 4.36695C4.13148 5.39447 3.21291 6.67756 2.61745 8.11693C2.022 9.5563 1.76564 11.1134 1.86819 12.6677C1.97073 14.222 2.42945 15.7319 3.20885 17.0806C3.27426 17.1938 3.31488 17.3196 3.32801 17.4497C3.34113 17.5798 3.32648 17.7112 3.285 17.8352L1.84615 22.151L6.16154 20.7121C6.25553 20.68 6.35415 20.6636 6.45346 20.6636C6.61558 20.6639 6.77477 20.7069 6.915 20.7882C8.45862 21.6814 10.2102 22.1523 11.9936 22.1534C13.7769 22.1545 15.5292 21.6859 17.0739 20.7946C18.6186 19.9034 19.9014 18.621 20.7932 17.0765C21.685 15.5319 22.1543 13.7798 22.1538 11.9962Z" fill="white"/>
</svg>
