<svg xmlns="http://www.w3.org/2000/svg" width="16" height="16" viewBox="0 0 16 16" fill="none">
<path d="M15.625 3.94945L12.0499 0.375011C11.9311 0.25612 11.79 0.161808 11.6347 0.0974633C11.4794 0.0331183 11.3129 0 11.1448 0C10.9767 0 10.8102 0.0331183 10.6549 0.0974633C10.4996 0.161808 10.3585 0.25612 10.2396 0.375011L0.375192 10.2399C0.25582 10.3584 0.161179 10.4993 0.09677 10.6547C0.032361 10.81 -0.000530731 10.9766 6.47571e-06 11.1447V14.72C6.47571e-06 15.0595 0.134858 15.385 0.374895 15.6251C0.614933 15.8651 0.940493 16 1.27996 16H14.7194C14.8892 16 15.052 15.9326 15.172 15.8125C15.292 15.6925 15.3594 15.5297 15.3594 15.36C15.3594 15.1903 15.292 15.0275 15.172 14.9074C15.052 14.7874 14.8892 14.72 14.7194 14.72H6.66535L15.625 5.75988C15.7439 5.64101 15.8382 5.49989 15.9025 5.34457C15.9669 5.18926 16 5.02278 16 4.85466C16 4.68655 15.9669 4.52007 15.9025 4.36476C15.8382 4.20944 15.7439 4.06832 15.625 3.94945ZM4.85502 14.72H1.27996V11.1447L8.31969 4.10466L11.8948 7.6799L4.85502 14.72ZM12.7995 6.77509L9.22525 3.19985L11.1452 1.27982L14.7194 4.85507L12.7995 6.77509Z" fill="black"/>
</svg>