<svg width="20" height="26" viewBox="0 0 20 26" fill="none" xmlns="http://www.w3.org/2000/svg">
<path d="M19.7341 7.2925L13.3705 0.2925C13.286 0.199666 13.1857 0.126052 13.0753 0.0758639C12.965 0.0256758 12.8467 -0.000102986 12.7273 3.09198e-07H1.81818C1.33597 3.09198e-07 0.873508 0.210714 0.532533 0.585787C0.191558 0.960859 0 1.46957 0 2V24C0 24.5304 0.191558 25.0391 0.532533 25.4142C0.873508 25.7893 1.33597 26 1.81818 26H18.1818C18.664 26 19.1265 25.7893 19.4675 25.4142C19.8084 25.0391 20 24.5304 20 24V8C20.0001 7.86864 19.9767 7.73855 19.931 7.61715C19.8854 7.49576 19.8185 7.38544 19.7341 7.2925ZM13.6364 3.41375L16.8966 7H13.6364V3.41375ZM18.1818 24H1.81818V2H11.8182V8C11.8182 8.26522 11.914 8.51957 12.0844 8.70711C12.2549 8.89464 12.4862 9 12.7273 9H18.1818V24ZM14.5455 14C14.5455 14.2652 14.4497 14.5196 14.2792 14.7071C14.1087 14.8946 13.8775 15 13.6364 15H6.36364C6.12253 15 5.8913 14.8946 5.72081 14.7071C5.55032 14.5196 5.45455 14.2652 5.45455 14C5.45455 13.7348 5.55032 13.4804 5.72081 13.2929C5.8913 13.1054 6.12253 13 6.36364 13H13.6364C13.8775 13 14.1087 13.1054 14.2792 13.2929C14.4497 13.4804 14.5455 13.7348 14.5455 14ZM14.5455 18C14.5455 18.2652 14.4497 18.5196 14.2792 18.7071C14.1087 18.8946 13.8775 19 13.6364 19H6.36364C6.12253 19 5.8913 18.8946 5.72081 18.7071C5.55032 18.5196 5.45455 18.2652 5.45455 18C5.45455 17.7348 5.55032 17.4804 5.72081 17.2929C5.8913 17.1054 6.12253 17 6.36364 17H13.6364C13.8775 17 14.1087 17.1054 14.2792 17.2929C14.4497 17.4804 14.5455 17.7348 14.5455 18Z" fill="white"/>
</svg>
