<svg width="24" height="24" viewBox="0 0 24 24" fill="none" xmlns="http://www.w3.org/2000/svg">
<path d="M23.6783 8.94857C23.5192 8.65449 23.3099 8.41509 23.0677 8.25015C22.8255 8.08521 22.5574 7.99947 22.2854 8H20.5712V5.71429C20.5712 5.10808 20.3906 4.5267 20.0691 4.09804C19.7476 3.66939 19.3116 3.42857 18.8569 3.42857H11.4288L8.45775 0.457143C8.16052 0.161689 7.79994 0.0014286 7.42919 0H1.71426C1.25961 0 0.823583 0.240816 0.502096 0.66947C0.180609 1.09812 0 1.67951 0 2.28571V22.8571C0 23.1602 0.0903047 23.4509 0.251048 23.6653C0.411792 23.8796 0.629807 24 0.857132 24H20.0462C20.2261 24 20.4014 23.9246 20.5474 23.7843C20.6933 23.6441 20.8025 23.4461 20.8594 23.2186L23.9119 11.0086C23.9977 10.665 24.0213 10.2992 23.9807 9.94116C23.9401 9.5831 23.8365 9.24295 23.6783 8.94857ZM7.42919 2.28571L10.6284 5.48571C10.7768 5.63408 10.9573 5.71429 11.1427 5.71429H18.8569V8H4.90387C4.54406 7.99996 4.19336 8.15089 3.90146 8.43138C3.60956 8.71188 3.39125 9.10773 3.27746 9.56286L1.71426 15.8143V2.28571H7.42919ZM19.429 21.7143H2.0464L4.90387 10.2857H22.2854L19.429 21.7143Z" fill="black"/>
</svg>
