<svg width="24" height="24" viewBox="0 0 24 24" fill="none" xmlns="http://www.w3.org/2000/svg">
<path d="M21.2308 0H2.76923C2.03479 0 1.33042 0.379285 0.811089 1.05442C0.291757 1.72955 0 2.64522 0 3.6V20.4C0 21.3548 0.291757 22.2705 0.811089 22.9456C1.33042 23.6207 2.03479 24 2.76923 24H21.2308C21.9652 24 22.6696 23.6207 23.1889 22.9456C23.7082 22.2705 24 21.3548 24 20.4V3.6C24 2.64522 23.7082 1.72955 23.1889 1.05442C22.6696 0.379285 21.9652 0 21.2308 0ZM1.84615 7.2H22.1538V9.6H15.6923C15.4475 9.6 15.2127 9.72643 15.0396 9.95147C14.8665 10.1765 14.7692 10.4817 14.7692 10.8C14.7692 11.7548 14.4775 12.6705 13.9581 13.3456C13.4388 14.0207 12.7344 14.4 12 14.4C11.2656 14.4 10.5612 14.0207 10.0419 13.3456C9.52253 12.6705 9.23077 11.7548 9.23077 10.8C9.23077 10.4817 9.13352 10.1765 8.96041 9.95147C8.7873 9.72643 8.55251 9.6 8.30769 9.6H1.84615V7.2ZM2.76923 2.4H21.2308C21.4756 2.4 21.7104 2.52643 21.8835 2.75147C22.0566 2.97652 22.1538 3.28174 22.1538 3.6V4.8H1.84615V3.6C1.84615 3.28174 1.94341 2.97652 2.11652 2.75147C2.28963 2.52643 2.52442 2.4 2.76923 2.4ZM21.2308 21.6H2.76923C2.52442 21.6 2.28963 21.4736 2.11652 21.2485C1.94341 21.0235 1.84615 20.7183 1.84615 20.4V12H7.47692C7.68878 13.3563 8.25483 14.5758 9.07915 15.4517C9.90347 16.3275 10.9354 16.806 12 16.806C13.0646 16.806 14.0965 16.3275 14.9209 15.4517C15.7452 14.5758 16.3112 13.3563 16.5231 12H22.1538V20.4C22.1538 20.7183 22.0566 21.0235 21.8835 21.2485C21.7104 21.4736 21.4756 21.6 21.2308 21.6Z" fill="white"/>
</svg>
