<svg width="24" height="28" viewBox="0 0 24 28" fill="none" xmlns="http://www.w3.org/2000/svg">
<path d="M23 0H1C0.734784 0 0.48043 0.134091 0.292893 0.372773C0.105357 0.611456 0 0.935179 0 1.27273V25.4545C0 26.1296 0.210714 26.7771 0.585786 27.2545C0.960859 27.7318 1.46957 28 2 28H7C7.53043 28 8.03914 27.7318 8.41421 27.2545C8.78929 26.7771 9 26.1296 9 25.4545V17.8182H15V20.3636C15 21.0387 15.2107 21.6862 15.5858 22.1635C15.9609 22.6409 16.4696 22.9091 17 22.9091H22C22.5304 22.9091 23.0391 22.6409 23.4142 22.1635C23.7893 21.6862 24 21.0387 24 20.3636V1.27273C24 0.935179 23.8946 0.611456 23.7071 0.372773C23.5196 0.134091 23.2652 0 23 0ZM7 25.4545H2V12.7273H7V25.4545ZM7 10.1818H2V2.54545H7V10.1818ZM15 15.2727H9V2.54545H15V15.2727ZM22 20.3636H17V12.7273H22V20.3636ZM22 10.1818H17V2.54545H22V10.1818Z" fill="white"/>
</svg>
